# AST/ASF file generated using VICON BodyLanguage
# -----------------------------------------------
:version 1.10
:name VICON
:units
  mass 1.0
  length 0.45
  angle deg
:documentation
   .ast/.asf automatically generated from VICON data using
   VICON BodyBuilder and BodyLanguage model FoxedUp or BRILLIANT.MOD
:root
   order TX TY TZ RX RY RZ
   axis XYZ
   position 0 0 0  
   orientation 0 0 0 
:bonedata
  begin
     id 1 
     name lhipjoint
     direction 0.734343 -0.627749 0.258209 
     length 2.5437 
     axis 0 0 0  XYZ
  end
  begin
     id 2 
     name lfemur
     direction 0.34202 -0.939693 0  
     length 6.7391  
     axis 0 0 20  XYZ
    dof rx ry rz
    limits (-160.0 20.0)
           (-70.0 70.0)
           (-60.0 70.0)
  end
  begin
     id 3 
     name ltibia
     direction 0.34202 -0.939693 0   
     length 7.21536   
     axis 0 0 20   XYZ
    dof rx
    limits (-10.0 170.0)
  end
  begin
     id 4 
     name lfoot
     direction 0.0489572 -0.134509 0.989702   
     length 1.61313   
     axis -90 7.62852e-016 20   XYZ
    dof rx rz
    limits (-45.0 90.0)
           (-70.0 20.0)
  end
  begin
     id 5 
     name ltoes
     direction 1.53451e-011 -4.21692e-011 1   
     length 0.823104   
     axis -90 7.62852e-016 20   XYZ
    dof rx
    limits (-90.0 20.0)
  end
  begin
     id 6 
     name rhipjoint
     direction -0.746398 -0.615468 0.253157   
     length 2.59446  
     axis 0 0 0  XYZ 
  end
  begin
     id 7 
     name rfemur
     direction -0.34202 -0.939693 0   
     length 6.7075   
     axis 0 0 -20   XYZ
    dof rx ry rz
    limits (-160.0 20.0)
           (-70.0 70.0)
           (-70.0 60.0)
  end
  begin
     id 8 
     name rtibia
     direction -0.34202 -0.939693 0   
     length 7.27262   
     axis 0 0 -20   XYZ
    dof rx
    limits (-10.0 170.0)
 end
 begin
     id 9 
     name rfoot
     direction -0.0455203 -0.125066 0.991104   
     length 1.91095  
     axis -90 -7.62852e-016 -20   XYZ
    dof rx rz
    limits (-45.0 90.0)
           (-20.0 70.0)
  end
  begin
     id 10 
     name rtoes
     direction -1.53601e-011 -4.21913e-011 1   
     length 0.969037   
     axis -90 -7.62852e-016 -20   XYZ
    dof rx
    limits (-90.0 20.0)
  end
  begin
     id 11 
     name lowerback
     direction 0.0181546 0.999122 -0.0377542   
     length 1.99916   
     axis 0 0 0   XYZ
    dof rx ry rz
    limits (-20.0 45.0)
           (-30.0 30.0)
           (-30.0 30.0)
  end
  begin
     id 12 
     name upperback
     direction 0.0203486 0.99589 0.0882534   
     length 1.951   
     axis 0 0 0   XYZ
    dof rx ry rz
    limits (-20.0 45.0)
           (-30.0 30.0)
           (-30.0 30.0)
  end
  begin
     id 13 
     name thorax
     direction 0.0131685 0.994241 0.106355   
     length 1.97461   
     axis 0 0 0   XYZ
    dof rx ry rz
    limits (-20.0 45.0)
           (-30.0 30.0)
           (-30.0 30.0)
  end
  begin
     id 14 
     name lowerneck
     direction -0.0281395 0.999325 0.023617   
     length 1.7959   
     axis 0 0 0   XYZ
    dof rx ry rz
    limits (-20.0 45.0)
           (-30.0 30.0)
           (-30.0 30.0)
  end
  begin
     id 15 
     name upperneck
     direction 0.0288721 0.991984 -0.123019   
     length 1.79917   
     axis 0 0 0   XYZ
    dof rx ry rz
    limits (-20.0 45.0)
           (-30.0 30.0)
           (-30.0 30.0)
  end
  begin
     id 16
     name head
     direction 0.0133797 0.998944 -0.0439492  
     length 1.80902  
     axis 0 0 0   XYZ
    dof rx ry rz
    limits (-20.0 45.0)
           (-30.0 30.0)
           (-30.0 30.0)
  end
  begin
     id 17 
     name lclavicle
     direction 0.919195 0.377107 0.113449  
     length 3.17815  
     axis 0 0 0   XYZ
    dof ry rz
    limits (-20.0 10.0)
           (0.0 20.0)
  end
  begin
     id 18 
     name lhumerus
     direction 1 -4.48959e-011 2.13129e-027   
     length 4.84137   
     axis 180 -30 -90   XYZ
    dof rx ry rz
    limits (-60.0 90.0)
           (-90.0 90.0)
           (-90.0 90.0)
  end
  begin
     id 19
     name lradius
     direction 1 -4.48957e-011 -6.30627e-028   
     length 3.2452   
     axis 180 -30 -90   XYZ
    dof rx
    limits (-10.0 170.0)
  end
  begin
     id 20
     name lwrist
     direction 1 -4.4901e-011 9.13299e-027   
     length 1.6226   
     axis -6.84618e-015 90 90   XYZ
    dof ry
    limits (-180.0 0.0)
 end
  begin
     id 21 
     name lhand
     direction 1 -4.48816e-011 1.82293e-026   
     length 0.521221   
     axis -1.16502e-014 90 90   XYZ
    dof rx rz
    limits (-90.0 90.0)
           (-45.0 45.0)
  end
  begin
     id 22 
     name lfingers
     direction 1 -4.49108e-011 3.65687e-026   
     length 0.420221   
     axis -2.33008e-014 90 90   XYZ
    dof rx
    limits (0.0 90.0)
  end
  begin
     id 23
     name lthumb
     direction 0.707107 -6.34943e-011 0.707107   
     length 0.603356   
     axis -90 45 5.69224e-014   XYZ
    dof rx rz
    limits (-45.0 45.0)
           (-45.0 45.0)
  end
  begin
     id 24 
     name rclavicle
     direction -0.90847 0.38596 0.160368   
     length 3.12973  
     axis 0 0 0   XYZ 
    dof ry rz
    limits (-10.0 20.0)
           (-20.0 0.0)
  end
  begin
     id 25 
     name rhumerus
     direction -1 -4.48974e-011 4.47268e-028  
     length 4.72284   
     axis 180 30 90   XYZ
    dof rx ry rz
    limits (-90.0 60.0)
           (-90.0 90.0)
           (-90.0 90.0)
  end
  begin
     id 26 
     name rradius
     direction -1 -4.48969e-011 3.43203e-027   
     length 3.23459   
     axis 180 30 90   XYZ
    dof rx
    limits (-10.0 170.0)
  end
  begin
     id 27 
     name rwrist
     direction -1 -4.48969e-011 9.12911e-027   
     length 1.6173   
     axis -6.84618e-015 -90 -90   XYZ
    dof ry
    limits (-180.0 0.0)
  end
  begin
     id 28
     name rhand
     direction -1 -4.49194e-011 1.83006e-026   
     length 0.307416   
     axis -1.16502e-014 -90 -90   XYZ
    dof rx rz
    limits (-90.0 90.0)
           (-45.0 45.0)
  end
  begin
     id 29
     name rfingers
     direction -1 -4.48423e-011 3.63103e-026   
     length 0.247847   
     axis -2.33008e-014 -90 -90   XYZ
    dof rx
    limits (0.0 90.0)
  end
  begin
     id 30
     name rthumb
     direction -0.707107 -6.34802e-011 0.707107   
     length 0.35586   
     axis -90 -45 -5.69224e-014   XYZ
    dof rx rz
    limits (-45.0 45.0)
           (-45.0 45.0)
  end
:hierarchy
  begin
    root lhipjoint rhipjoint lowerback
    lhipjoint lfemur
    lfemur ltibia
    ltibia lfoot
    lfoot ltoes
    rhipjoint rfemur
    rfemur rtibia
    rtibia rfoot
    rfoot rtoes
    lowerback upperback
    upperback thorax
    thorax lowerneck lclavicle rclavicle
    lowerneck upperneck
    upperneck head
    lclavicle lhumerus
    lhumerus lradius
    lradius lwrist
    lwrist lhand lthumb
    lhand lfingers
    rclavicle rhumerus
    rhumerus rradius
    rradius rwrist
    rwrist rhand rthumb
    rhand rfingers
  end

#!OML:ASF H:\Terrain\Patient Classification 1\Animal1\Tuesday\Animal1.ASF
:FULLY-SPECIFIED
:DEGREES
321
root 10.0674 16.9578 -6.8049 10.5295 -7.13632 1.74357
lowerback -7.07965 -0.421851 0.38979
upperback -4.32041 -0.593714 0.194114
thorax -0.486766 -0.306489 -0.0576629
lowerneck -5.71284 0.642168 -6.52663
upperneck 15.0474 0.928084 4.54305
head 5.40948 0.395054 2.56094
rclavicle 1.06226e-015 1.59028e-015
rhumerus -38.8164 3.8689 -90.6453
rradius 13.9267
rwrist -26.7112
rhand -2.33238 13.7775
rfingers 7.12502
rthumb 23.3546 -14.8257
lclavicle 1.06226e-015 1.59028e-015
lhumerus -49.1275 34.9989 58.592
lradius 10.2713
lwrist -44.0764
lhand 34.7706 38.9145
lfingers 7.12502
lthumb 57.9371 54.6921
rfemur -15.7337 8.48149 25.9226
rtibia 26.9551
rfoot -16.4683 -37.1103
rtoes 20.5307
lfemur -12.1019 -6.03382 -24.8908
ltibia 17.6889
lfoot -23.5342 33.0173
ltoes 31.018
322
root 10.0455 16.9797 -6.76583 10.3628 -6.53447 1.70669
lowerback -6.97089 -0.430534 0.227325
upperback -4.1838 -0.594396 0.0974729
thorax -0.405173 -0.304223 -0.0657107
lowerneck -5.54718 0.469471 -6.74865
upperneck 15.0019 0.698154 4.61526
head 5.37928 0.2745 2.60494
rclavicle -2.26863e-014 -7.95139e-016
rhumerus -38.8648 4.44937 -91.1801
rradius 13.9794
rwrist -27.8689
rhand -2.70435 14.1039
rfingers 7.12502
rthumb 22.9977 -14.5441
lclavicle -2.26863e-014 -7.95139e-016
lhumerus -48.808 35.1506 58.5996
lradius 10.1642
lwrist -44.2884
lhand 34.6701 39.0288
lfingers 7.12502
lthumb 57.8494 54.8846
rfemur -15.0445 9.25666 26.0128
rtibia 26.2589
rfoot -18.5611 -37.5627
rtoes 24.4967
lfemur -12.6917 -5.95049 -24.8432
ltibia 18.2388
lfoot -22.5717 32.5468
ltoes 26.5449
323
root 10.024 17.0521 -6.7268 10.2756 -6.15312 1.45575
lowerback -6.85073 -0.31876 0.276803
upperback -4.06533 -0.447176 0.0403221
thorax -0.349807 -0.231367 -0.142389
lowerneck -5.30162 0.324051 -7.01893
upperneck 14.9597 0.492634 4.76771
head 5.33489 0.167693 2.68354
rclavicle 4.06887e-016 1.19271e-015
rhumerus -38.919 5.65388 -92.0808
rradius 14.0929
rwrist -29.5616
rhand -2.92973 13.8134
rfingers 7.12502
rthumb 22.7814 -14.8614
lclavicle 4.06887e-016 1.19271e-015
lhumerus -48.2495 34.6452 59.3256
lradius 10.3736
lwrist -43.4893
lhand 34.6138 39.2404
lfingers 7.12502
lthumb 57.8002 55.1397
rfemur -14.671 11.8459 25.7819
rtibia 25.7037
rfoot -28.038 -35.1935
rtoes 39.2575
lfemur -13.2246 -5.97564 -24.5185
ltibia 18.6481
lfoot -22.5338 31.5654
ltoes 24.4606
324
root 10.0142 16.9953 -6.70917 10.4035 -5.80635 1.10784
lowerback -6.81351 -0.224543 0.442096
upperback -4.07838 -0.330305 0.00353301
thorax -0.384563 -0.175925 -0.265217
lowerneck -5.08989 0.248906 -7.17421
upperneck 15.0792 0.375946 4.86803
head 5.342 0.105499 2.73448
rclavicle -8.05389e-015 -9.34288e-015
rhumerus -39.5578 7.77985 -93.5907
rradius 15.0884
rwrist -31.8587
rhand -2.96273 12.8217
rfingers 7.12502
rthumb 22.7497 -15.857
lclavicle -8.05389e-015 -9.34288e-015
lhumerus -47.8865 34.1039 59.8926
lradius 10.5329
lwrist -42.5725
lhand 34.738 39.2129
lfingers 7.12502
lthumb 57.9087 55.016
rfemur -14.4175 9.17099 27.0898
rtibia 24.9591
rfoot 4.43869 -40.9751
rtoes -9.96675
lfemur -14.2119 -6.28801 -24.0993
ltibia 19.2811
lfoot -22.5882 30.6073
ltoes 24.4591
325
root 9.99988 17.0425 -6.67906 10.5471 -5.40833 0.741688
lowerback -6.6855 -0.189316 0.58918
upperback -4.1748 -0.290153 -0.010776
thorax -0.555434 -0.159092 -0.359044
lowerneck -4.8358 0.166249 -7.32087
upperneck 15.2995 0.243292 4.95889
head 5.37453 0.0334997 2.78137
rclavicle 2.61371e-015 -2.16675e-014
rhumerus -40.3598 9.91812 -95.172
rradius 15.9698
rwrist -33.8167
rhand -3.73916 12.0747
rfingers 7.12502
rthumb 22.0044 -16.6936
lclavicle 2.61371e-015 -2.16675e-014
lhumerus -48.4602 35.0717 58.654
lradius 10.271
lwrist -43.7234
lhand 34.7094 38.5766
lfingers 7.12502
lthumb 57.8837 54.4019
rfemur -13.8783 9.72264 27.4193
rtibia 24.4462
rfoot -10.2896 -40.5133
rtoes 14.4845
lfemur -15.0412 -6.43967 -23.6658
ltibia 19.7199
lfoot -21.0173 30.2998
ltoes 21.0086
326
root 9.98702 17.0801 -6.64117 10.7678 -5.10695 0.443898
lowerback -6.81619 -0.202257 0.62066
upperback -4.23076 -0.30968 -0.00929599
thorax -0.541302 -0.169471 -0.376812
lowerneck -4.64783 0.147754 -7.47547
upperneck 15.5937 0.200489 5.05336
head 5.4357 0.0047863 2.83748
rclavicle 3.29843e-014 -2.10712e-014
rhumerus -40.8915 11.4062 -96.2347
rradius 16.4841
rwrist -34.9783
rhand -4.1695 12.0554
rfingers 7.12502
rthumb 21.5912 -16.7609
lclavicle 3.29843e-014 -2.10712e-014
lhumerus -49.2579 36.4033 57.135
lradius 10.1156
lwrist -45.0066
lhand 34.355 37.859
lfingers 7.12502
lthumb 57.5739 53.9567
rfemur -13.5356 9.91233 27.6955
rtibia 23.8305
rfoot -15.9013 -39.0212
rtoes 25.0571
lfemur -15.9319 -6.39189 -23.3484
ltibia 20.3524
lfoot -20.2493 29.5543
ltoes 18.9772
327
root 9.9787 17.1105 -6.59649 11.1068 -4.97545 0.508208
lowerback -7.22877 -0.207526 0.246488
upperback -4.28342 -0.296869 -0.0969938
thorax -0.36595 -0.157019 -0.257972
lowerneck -4.5428 0.202951 -7.48713
upperneck 15.8659 0.25844 5.08987
head 5.49803 0.0306998 2.85758
rclavicle -1.07383e-014 -5.86415e-015
rhumerus -41.0249 11.9845 -96.5756
rradius 16.5905
rwrist -35.2592
rhand -3.30206 12.1776
rfingers 7.12502
rthumb 22.424 -16.5408
lclavicle -1.07383e-014 -5.86415e-015
lhumerus -49.4914 36.7001 56.9367
lradius 10.324
lwrist -44.7344
lhand 34.0109 37.284
lfingers 7.12502
lthumb 57.2722 53.641
rfemur -13.7632 9.85352 27.5247
rtibia 23.7754
rfoot -15.6488 -38.7524
rtoes 25.4239
lfemur -16.4672 -6.29995 -23.4356
ltibia 20.1741
lfoot -19.0049 28.5576
ltoes 19.6457
328
root 9.97375 17.1416 -6.5545 11.451 -4.95281 0.491706
lowerback -7.54405 -0.123355 -0.0181202
upperback -4.38457 -0.168709 -0.183484
thorax -0.295125 -0.0891912 -0.190469
lowerneck -4.3854 0.148088 -7.61364
upperneck 16.0518 0.163888 5.20477
head 5.53427 -0.0188034 2.91145
rclavicle 4.62194e-015 1.57785e-014
rhumerus -41.1584 12.2951 -96.7328
rradius 16.6717
rwrist -35.4102
rhand -2.37793 12.2069
rfingers 7.12502
rthumb 23.3109 -16.4018
lclavicle 4.62194e-015 1.57785e-014
lhumerus -49.6703 36.7813 56.8929
lradius 10.4972
lwrist -44.4607
lhand 33.7695 37.087
lfingers 7.12502
lthumb 57.0603 53.6227
rfemur -13.9391 9.96187 27.4019
rtibia 23.5319
rfoot -13.2781 -39.0939
rtoes 22.996
lfemur -17.1116 -6.21367 -23.4593
ltibia 20.163
lfoot -16.0518 28.208
ltoes 16.9281
329
root 9.97335 17.1756 -6.51242 11.7084 -4.91801 0.0590137
lowerback -7.7243 0.0115339 0.238457
upperback -4.41291 -0.00548267 -0.20554
thorax -0.224637 -0.0121498 -0.345607
lowerneck -4.33973 0.00896131 -7.80427
upperneck 16.2376 -0.0496634 5.43802
head 5.59743 -0.120889 3.00747
rclavicle 2.52604e-014 -1.68967e-014
rhumerus -41.1484 12.3555 -96.7525
rradius 16.7338
rwrist -35.3897
rhand -2.1497 12.5711
rfingers 7.12502
rthumb 23.5298 -16.0097
lclavicle 2.52604e-014 -1.68967e-014
lhumerus -49.7516 36.975 56.6664
lradius 10.5057
lwrist -44.4951
lhand 33.4256 37.3319
lfingers 7.12502
lthumb 56.7575 54.1181
rfemur -13.9294 9.86773 27.7402
rtibia 23.2482
rfoot -11.6318 -38.9582
rtoes 22.1401
lfemur -17.5901 -6.13958 -23.0723
ltibia 20.1213
lfoot -13.4847 27.7416
ltoes 15.2212
330
root 9.97637 17.2001 -6.46548 11.7622 -4.98332 -0.412853
lowerback -7.81321 0.152657 0.500129
upperback -4.31962 0.165109 -0.216078
thorax -0.0773497 0.0693322 -0.490481
lowerneck -4.27308 -0.0472795 -7.85706
upperneck 16.2228 -0.166864 5.70588
head 5.58764 -0.163537 3.09428
rclavicle 1.33535e-014 -4.96962e-016
rhumerus -40.9333 12.0672 -96.5195
rradius 16.704
rwrist -34.8459
rhand -2.32207 12.1896
rfingers 7.12502
rthumb 23.3645 -16.4123
lclavicle 1.33535e-014 -4.96962e-016
lhumerus -49.6742 37.0574 56.6058
lradius 10.4652
lwrist -44.3584
lhand 32.8768 37.5132
lfingers 7.12502
lthumb 56.273 54.6892
rfemur -13.6402 9.63626 28.1385
rtibia 22.9437
rfoot -11.3252 -38.3046
rtoes 23.1488
lfemur -17.8793 -6.06675 -22.7256
ltibia 20.29
lfoot -11.3877 27.2526
ltoes 17.3611
